<svg width="143" height="35" viewBox="0 0 143 35" fill="none" xmlns="http://www.w3.org/2000/svg"><g clip-path="url(#clip0_4010_80211)"><path fill-rule="evenodd" clip-rule="evenodd" d="M29 17C29 9.82039 23.1796 4 16 4C8.82039 4 3 9.82039 3 17C3 24.18 8.82039 30 16 30C23.1796 30 29 24.18 29 17ZM13.6338 9.77783C13.5316 9.97842 13.5316 10.241 13.5316 10.7662V13.7426C13.5316 13.8738 13.5316 13.9394 13.5482 14C13.5629 14.0537 13.587 14.1044 13.6195 14.1497C13.6561 14.2008 13.707 14.2421 13.8088 14.3249L13.8088 14.3249L14.5617 14.9365C14.6844 15.0362 14.7458 15.086 14.7681 15.146C14.7876 15.1987 14.7876 15.2565 14.7681 15.3092C14.7458 15.3692 14.6844 15.419 14.5617 15.5187L13.8088 16.1303C13.707 16.2131 13.6561 16.2544 13.6195 16.3055C13.587 16.3508 13.5629 16.4015 13.5482 16.4552C13.5316 16.5158 13.5316 16.5814 13.5316 16.7126L13.5316 23.2339C13.5316 23.759 13.5316 24.0216 13.6338 24.2222C13.7237 24.3986 13.8672 24.5421 14.0436 24.632C14.2442 24.7342 14.5068 24.7342 15.032 24.7342H16.968C17.4932 24.7342 17.7558 24.7342 17.9564 24.632C18.1328 24.5421 18.2762 24.3986 18.3661 24.2222C18.4683 24.0216 18.4683 23.759 18.4683 23.2339V20.2574C18.4683 20.1262 18.4683 20.0607 18.4518 20C18.4371 19.9463 18.413 19.8956 18.3805 19.8503C18.3439 19.7992 18.293 19.7579 18.1912 19.6752L18.1912 19.6752L17.4383 19.0636L17.4383 19.0635C17.3156 18.9639 17.2542 18.914 17.2319 18.854C17.2124 18.8014 17.2124 18.7435 17.2319 18.6909C17.2542 18.6308 17.3156 18.581 17.4383 18.4813L17.4383 18.4813L18.1912 17.8697C18.293 17.787 18.3439 17.7456 18.3805 17.6945C18.413 17.6493 18.4371 17.5986 18.4518 17.5449C18.4683 17.4842 18.4683 17.4186 18.4683 17.2874V10.7662C18.4683 10.241 18.4683 9.97842 18.3661 9.77783C18.2762 9.60139 18.1328 9.45794 17.9564 9.36804C17.7558 9.26584 17.4932 9.26584 16.968 9.26584H15.032C14.5068 9.26584 14.2442 9.26584 14.0436 9.36804C13.8672 9.45794 13.7237 9.60139 13.6338 9.77783Z" fill="#303136"/><path d="M39.4368 24.777C39.5656 24.777 39.67 24.6726 39.67 24.5438V9.27325C39.67 9.14445 39.5656 9.04004 39.4368 9.04004H37.1863C37.1029 9.04004 37.0267 9.08516 36.9808 9.15484C36.4648 9.93944 35.5054 10.3346 34.1905 10.3758C34.0617 10.3798 33.957 10.4838 33.957 10.6126V12.8965C33.957 13.0253 34.0614 13.1297 34.1902 13.1297H36.009C36.1378 13.1297 36.2422 13.2342 36.2422 13.363V24.5438C36.2422 24.6726 36.3466 24.777 36.4754 24.777H39.4368Z" fill="#303136"/><path d="M48.4212 12.197C49.6352 12.197 50.6111 12.8427 50.6111 14.4691C50.6111 16.0475 49.6352 16.7411 48.4212 16.7411H45.7789V12.197H48.4212ZM48.4212 19.6828C51.9918 19.6828 54.0627 17.5064 54.0627 14.3734C54.0627 11.4078 51.9918 9.23137 48.4212 9.23137H42.6081C42.4793 9.23137 42.3749 9.33578 42.3749 9.46458V24.5438C42.3749 24.6726 42.4793 24.777 42.6081 24.777H45.5457C45.6745 24.777 45.7789 24.6726 45.7789 24.5438V19.916C45.7789 19.7873 45.8833 19.6828 46.0121 19.6828H48.4212Z" fill="#303136"/><path d="M59.3424 22.5767C58.3426 22.5767 57.7237 22.1223 57.7237 21.3092C57.7237 20.5917 58.1522 20.1133 59.1758 20.1133H61.9608V20.3525C61.9608 21.7397 60.7706 22.5767 59.3424 22.5767ZM62.2227 24.5438C62.2227 24.6726 62.3271 24.777 62.4559 24.777H65.0126C65.1414 24.777 65.2458 24.6726 65.2458 24.5438V17.7934C65.2458 14.5408 63.4129 12.6514 60.1041 12.6514C57.6475 12.6514 55.7666 13.9641 54.9954 16.0745C54.9491 16.2012 55.026 16.3379 55.1571 16.37L57.733 17.0018C57.8493 17.0303 57.9677 16.9657 58.013 16.8548C58.4042 15.8974 59.0555 15.3301 60.1041 15.3301C61.1991 15.3301 61.9608 16.0475 61.9608 17.339V17.5064C61.9608 17.8652 61.8418 18.0087 61.4133 18.0087H58.4378C55.9622 18.0087 54.4626 19.3241 54.4626 21.4048C54.4626 23.629 56.1764 25.064 58.5569 25.064C59.7546 25.064 60.9053 24.6702 61.7164 23.7931C61.8758 23.6207 62.2227 23.7258 62.2227 23.9606V24.5438Z" fill="#303136"/><path d="M71.5792 22.6724C70.4224 22.6724 69.5775 22.192 69.1609 21.3093C69.1104 21.2021 68.993 21.1398 68.8781 21.1689L66.4704 21.7787C66.3466 21.8101 66.2704 21.9356 66.3072 22.0579C66.9168 24.0835 68.9556 25.064 71.4601 25.064C74.6737 25.064 76.5066 23.4138 76.5066 21.1657C76.5066 16.8129 69.6272 18.2957 69.6272 16.1432C69.6272 15.4257 70.2223 14.9713 71.2935 14.9713C72.3596 14.9713 73.0734 15.5543 73.4156 16.4483C73.458 16.5592 73.5717 16.6287 73.6884 16.6066L76.1458 16.1412C76.2771 16.1163 76.3612 15.9859 76.3233 15.8576C75.7597 13.9533 74.1754 12.6514 71.3173 12.6514C68.1752 12.6514 66.5089 14.3256 66.5089 16.4302C66.5089 20.9265 73.4121 19.5872 73.4121 21.4527C73.4121 22.1941 72.7932 22.6724 71.5792 22.6724Z" fill="#303136"/><path d="M82.2733 22.6724C81.1166 22.6724 80.2716 22.192 79.8551 21.3093C79.8045 21.2021 79.6872 21.1398 79.5723 21.1689L77.1646 21.7787C77.0408 21.8101 76.9646 21.9356 77.0014 22.0579C77.611 24.0835 79.6497 25.064 82.1543 25.064C85.3679 25.064 87.2008 23.4138 87.2008 21.1657C87.2008 16.8129 80.3214 18.2957 80.3214 16.1432C80.3214 15.4257 80.9165 14.9713 81.9877 14.9713C83.0538 14.9713 83.7676 15.5543 84.1097 16.4483C84.1522 16.5592 84.2659 16.6287 84.3825 16.6066L86.8399 16.1412C86.9713 16.1163 87.0554 15.9859 87.0174 15.8576C86.4538 13.9533 84.8696 12.6514 82.0115 12.6514C78.8693 12.6514 77.2031 14.3256 77.2031 16.4302C77.2031 20.9265 84.1062 19.5872 84.1062 21.4527C84.1062 22.1941 83.4873 22.6724 82.2733 22.6724Z" fill="#303136"/><path d="M90.2099 24.599C90.2354 24.7035 90.329 24.777 90.4365 24.777H94.139C94.2473 24.777 94.3413 24.7026 94.366 24.5972L96.2519 16.5737L98.1377 24.5972C98.1625 24.7026 98.2565 24.777 98.3648 24.777H102.187C102.294 24.777 102.388 24.7037 102.413 24.5994L105.203 13.2272C105.239 13.0802 105.128 12.9384 104.976 12.9384H102.345C102.235 12.9384 102.139 13.0161 102.117 13.1244L100.251 22.1462L97.9393 13.1138C97.9128 13.0106 97.8199 12.9384 97.7133 12.9384H94.7699C94.6618 12.9384 94.568 13.0126 94.543 13.1177L92.3956 22.1462L90.5532 13.125C90.531 13.0164 90.4355 12.9384 90.3247 12.9384H87.6697C87.5186 12.9384 87.4074 13.0799 87.4431 13.2268L90.2099 24.599Z" fill="#303136"/><path d="M111.492 25.064C115.062 25.064 117.514 22.2897 117.514 18.8697C117.514 15.4257 115.062 12.6514 111.492 12.6514C107.945 12.6514 105.469 15.4257 105.469 18.8697C105.469 22.2897 107.945 25.064 111.492 25.064ZM111.492 22.218C110.016 22.218 108.873 20.9743 108.873 18.8697C108.873 16.765 110.016 15.4975 111.492 15.4975C112.968 15.4975 114.134 16.765 114.134 18.8697C114.134 20.9743 112.968 22.218 111.492 22.218Z" fill="#303136"/><path d="M122.209 18.5109C122.209 16.478 123.233 15.9997 124.804 15.9997C125.105 15.9997 125.436 16.0296 125.75 16.0894C125.883 16.1148 126.014 16.0299 126.038 15.8967L126.536 13.0802C126.554 12.9813 126.506 12.8809 126.414 12.8416C126.128 12.7196 125.774 12.6514 125.352 12.6514C123.757 12.6514 122.519 13.5842 121.924 15.4736V13.1716C121.924 13.0428 121.819 12.9384 121.691 12.9384H119.11C118.981 12.9384 118.877 13.0428 118.877 13.1716V24.5438C118.877 24.6726 118.981 24.777 119.11 24.777H121.976C122.105 24.777 122.209 24.6726 122.209 24.5438V18.5109Z" fill="#303136"/><path d="M132.695 22.2897C130.981 22.2897 130.077 20.8787 130.077 18.8697C130.077 16.8607 130.981 15.4257 132.695 15.4257C134.409 15.4257 135.314 16.8607 135.314 18.8697C135.314 20.8787 134.409 22.2897 132.695 22.2897ZM135.504 24.5438C135.504 24.6726 135.609 24.777 135.737 24.777H138.413C138.542 24.777 138.646 24.6726 138.646 24.5438V9.49936C138.646 9.37056 138.542 9.26615 138.413 9.26615H135.642C135.513 9.26615 135.409 9.37056 135.409 9.49936V14.5886C134.671 13.2015 133.433 12.6514 131.862 12.6514C128.791 12.6514 126.697 15.3301 126.697 18.8697C126.697 22.4093 128.791 25.064 131.862 25.064C133.528 25.064 134.814 24.3944 135.504 22.6724V24.5438Z" fill="#303136"/></g><defs><clipPath id="clip0_4010_80211"><rect width="136" height="26" fill="white" transform="translate(3 4)"/></clipPath></defs></svg>
